<mxfile host="app.diagrams.net" modified="2021-11-15T09:17:16.775Z" agent="5.0 (Windows NT 10.0; Win64; x64) AppleWebKit/537.36 (KHTML, like Gecko) Chrome/95.0.4638.69 Safari/537.36" etag="QtOrboitVR3AnBfBCN1k" version="15.7.0" type="github">
  <diagram id="hUH9DkvdgK0jEHDwUPxk" name="Page-1">
    <mxGraphModel dx="827" dy="385" grid="1" gridSize="10" guides="1" tooltips="1" connect="1" arrows="1" fold="1" page="1" pageScale="1" pageWidth="1200" pageHeight="1920" math="0" shadow="0">
      <root>
        <mxCell id="0" />
        <mxCell id="1" parent="0" />
        <mxCell id="iC1IJoCgWQATpiNzOQi8-14" style="edgeStyle=orthogonalEdgeStyle;rounded=0;orthogonalLoop=1;jettySize=auto;html=1;exitX=1;exitY=0.5;exitDx=0;exitDy=0;entryX=0;entryY=0.5;entryDx=0;entryDy=0;" edge="1" parent="1" source="iC1IJoCgWQATpiNzOQi8-1" target="iC1IJoCgWQATpiNzOQi8-5">
          <mxGeometry relative="1" as="geometry" />
        </mxCell>
        <mxCell id="iC1IJoCgWQATpiNzOQi8-1" value="AI畜牧系统软件平台" style="ellipse;whiteSpace=wrap;html=1;aspect=fixed;" vertex="1" parent="1">
          <mxGeometry x="440" y="530" width="80" height="80" as="geometry" />
        </mxCell>
        <mxCell id="iC1IJoCgWQATpiNzOQi8-10" style="edgeStyle=orthogonalEdgeStyle;rounded=0;orthogonalLoop=1;jettySize=auto;html=1;exitX=0;exitY=0.25;exitDx=0;exitDy=0;entryX=1.005;entryY=0.367;entryDx=0;entryDy=0;entryPerimeter=0;" edge="1" parent="1" source="iC1IJoCgWQATpiNzOQi8-5" target="iC1IJoCgWQATpiNzOQi8-1">
          <mxGeometry relative="1" as="geometry" />
        </mxCell>
        <mxCell id="iC1IJoCgWQATpiNzOQi8-5" value="用户" style="rounded=0;whiteSpace=wrap;html=1;" vertex="1" parent="1">
          <mxGeometry x="609" y="550" width="100" height="40" as="geometry" />
        </mxCell>
        <mxCell id="iC1IJoCgWQATpiNzOQi8-12" value="方案选择项" style="text;html=1;strokeColor=none;fillColor=none;align=center;verticalAlign=middle;whiteSpace=wrap;rounded=0;" vertex="1" parent="1">
          <mxGeometry x="540" y="530" width="60" height="30" as="geometry" />
        </mxCell>
        <mxCell id="iC1IJoCgWQATpiNzOQi8-15" value="对应解决方案" style="text;html=1;strokeColor=none;fillColor=none;align=center;verticalAlign=middle;whiteSpace=wrap;rounded=0;" vertex="1" parent="1">
          <mxGeometry x="540" y="570" width="60" height="30" as="geometry" />
        </mxCell>
      </root>
    </mxGraphModel>
  </diagram>
</mxfile>
